<?xml version="1.0" encoding="UTF-8"?>
<svg xmlns="http://www.w3.org/2000/svg" xmlns:xlink="http://www.w3.org/1999/xlink" width="320pt" height="160pt" viewBox="0 0 320 160" version="1.1">
<g id="surface1">
<rect x="0" y="0" width="320" height="160" style="fill:rgb(100%,100%,100%);fill-opacity:1;stroke:none;"/>
<path style=" stroke:none;fill-rule:nonzero;fill:rgb(70%,90%,80%);fill-opacity:1;" d="M 65 120 C 65 120 64 120 60 120 C 56 120 54 120 50 120 C 46 120 44 118 40 110 C 36 102 35 98 35 90 C 35 82 35 78 35 70 C 35 62 35 58 35 50 C 35 42 36 38 40 30 C 44 22 46 20 50 20 C 54 20 56 20 60 20 C 64 20 66 20 70 20 C 74 20 76 20 80 20 C 84 20 86 20 90 20 C 94 20 96 20 100 20 C 104 20 106 20 110 20 C 114 20 116 20 120 20 C 124 20 126 20 130 20 C 134 20 136 20 140 20 C 144 20 146 22 150 30 C 154 38 155 42 155 50 C 155 58 155 62 155 70 C 155 78 155 82 155 90 C 155 98 154 102 150 110 C 146 118 144 120 140 120 C 136 120 134 120 130 120 C 126 120 124 120 120 120 C 116 120 114 120 110 120 C 106 120 104 120 100 120 C 96 120 94 120 90 120 C 86 120 84 120 80 120 C 76 120 74 120 70 120 "/>
<path style="fill:none;stroke-width:2;stroke-linecap:butt;stroke-linejoin:round;stroke:rgb(100%,20%,20%);stroke-opacity:0.8;stroke-dasharray:8,2;stroke-dashoffset:4;stroke-miterlimit:10;" d="M 30 20 C 26 28 25 36 25 60 C 25 84 26 92 30 100 C 34 108 45 110 85 110 C 125 110 136 108 140 100 C 144 92 145 84 145 60 C 145 36 144 28 140 20 C 136 12 125 10 85 10 C 45 10 34 12 30 20 " transform="matrix(1,0,0,1,10,10)"/>
<path style="fill:none;stroke-width:2;stroke-linecap:butt;stroke-linejoin:round;stroke:rgb(60%,50%,40%);stroke-opacity:1;stroke-dasharray:2,2;stroke-miterlimit:10;" d="M 195 60 L 195 60 C 195 87 196 92 200 100 C 204 108 212 110 240 110 L 275 110 " transform="matrix(1,0,0,1,10,10)"/>
</g>
</svg>
