<?xml version="1.0" encoding="UTF-8"?>
<svg xmlns="http://www.w3.org/2000/svg" xmlns:xlink="http://www.w3.org/1999/xlink" width="320pt" height="140pt" viewBox="0 0 320 140" version="1.1">
<defs>
<linearGradient id="linear0" gradientUnits="userSpaceOnUse" x1="25" y1="10" x2="145" y2="110" gradientTransform="matrix(1,0,0,1,10,10)">
<stop offset="0" style="stop-color:rgb(100%,100%,100%);stop-opacity:1;"/>
<stop offset="1" style="stop-color:rgb(54%,54%,54%);stop-opacity:1;"/>
</linearGradient>
</defs>
<g id="surface1">
<rect x="0" y="0" width="320" height="140" style="fill:rgb(100%,100%,100%);fill-opacity:1;stroke:none;"/>
<path style="fill:none;stroke-width:1;stroke-linecap:butt;stroke-linejoin:round;stroke:rgb(0%,0%,0%);stroke-opacity:0.1;stroke-miterlimit:10;" d="M 195 60 L 195 90 L 205 110 L 275 110 L 275 70 " transform="matrix(1,0,0,1,10,10)"/>
<path style="fill:none;stroke-width:1;stroke-linecap:butt;stroke-linejoin:round;stroke:rgb(0%,0%,0%);stroke-opacity:0.1;stroke-miterlimit:10;" d="M 195 60 L 195 90 L 205 110 L 275 110 L 275 70 " transform="matrix(1,0,0,1,11,11)"/>
<path style="fill:none;stroke-width:1;stroke-linecap:butt;stroke-linejoin:round;stroke:rgb(0%,0%,0%);stroke-opacity:0.1;stroke-miterlimit:10;" d="M 195 60 L 195 90 L 205 110 L 275 110 L 275 70 " transform="matrix(1,0,0,1,12,12)"/>
<path style="fill:none;stroke-width:1;stroke-linecap:butt;stroke-linejoin:round;stroke:rgb(0%,0%,0%);stroke-opacity:0.1;stroke-miterlimit:10;" d="M 195 60 L 195 90 L 205 110 L 275 110 L 275 70 " transform="matrix(1,0,0,1,13,13)"/>
<path style="fill:none;stroke-width:1;stroke-linecap:butt;stroke-linejoin:round;stroke:rgb(0%,0%,0%);stroke-opacity:0.1;stroke-miterlimit:10;" d="M 195 60 L 195 90 L 205 110 L 275 110 L 275 70 " transform="matrix(1,0,0,1,14,14)"/>
<path style="fill:none;stroke-width:1;stroke-linecap:butt;stroke-linejoin:round;stroke:rgb(0%,0%,0%);stroke-opacity:0.1;stroke-miterlimit:10;" d="M 195 60 L 195 90 L 205 110 L 275 110 L 275 70 " transform="matrix(1,0,0,1,15,15)"/>
<path style=" stroke:none;fill-rule:nonzero;fill:url(#linear0);" d="M 125 20 C 125 20 126 20 130 20 C 134 20 136 20 140 20 C 144 20 146 22 150 30 C 154 38 155 42 155 50 C 155 58 155 62 155 70 C 155 78 155 82 155 90 C 155 98 154 102 150 110 C 146 118 144 120 140 120 C 136 120 134 120 130 120 C 126 120 124 120 120 120 C 116 120 114 120 110 120 C 106 120 104 120 100 120 C 96 120 94 120 90 120 C 86 120 84 120 80 120 C 76 120 74 120 70 120 C 66 120 64 120 60 120 C 56 120 54 120 50 120 C 46 120 44 118 40 110 C 36 102 35 98 35 90 C 35 82 35 78 35 70 C 35 62 35 58 35 50 C 35 42 36 38 40 30 C 44 22 46 20 50 20 C 54 20 56 20 60 20 C 64 20 66 20 70 20 C 74 20 76 20 80 20 C 84 20 86 20 90 20 C 94 20 96 20 100 20 C 104 20 106 20 110 20 C 114 20 116 20 120 20 C 124 20 125 20 125 20 "/>
<path style="fill:none;stroke-width:1;stroke-linecap:butt;stroke-linejoin:round;stroke:rgb(0%,0%,0%);stroke-opacity:1;stroke-miterlimit:10;" d="M 25 30 C 25 30 25 36 25 60 C 25 84 26 92 30 100 C 34 108 45 110 85 110 C 125 110 136 108 140 100 C 144 92 145 84 145 60 C 145 36 144 28 140 20 C 136 12 125 10 85 10 C 45 10 34 12 30 20 C 26 28 25 30 25 30 " transform="matrix(1,0,0,1,10,10)"/>
<path style="fill:none;stroke-width:1;stroke-linecap:butt;stroke-linejoin:round;stroke:rgb(0%,0%,0%);stroke-opacity:1;stroke-miterlimit:10;" d="M 195 60 L 195 60 C 195 87 196 92 200 100 C 204 108 212 110 240 110 L 275 110 C 275 74 275 70 275 70 " transform="matrix(1,0,0,1,10,10)"/>
</g>
</svg>
